<?xml version="1.0" encoding="UTF-8"?>
<!DOCTYPE svg PUBLIC "-//W3C//DTD SVG 1.1//EN" "http://www.w3.org/Graphics/SVG/1.1/DTD/svg11.dtd">
<svg version="1.1" xmlns="http://www.w3.org/2000/svg" xmlns:xlink="http://www.w3.org/1999/xlink" x="0" y="0" width="600" height="107" viewBox="0, 0, 600, 107">
  <defs>
    <linearGradient id="Gradient_1" gradientUnits="userSpaceOnUse" x1="19.594" y1="20.419" x2="43.909" y2="40.822" gradientTransform="matrix(1, 0, 0, 1, 539.088, 44.08)">
      <stop offset="0" stop-color="#61AE5B"/>
      <stop offset="0.208" stop-color="#72B65C"/>
      <stop offset="0.52" stop-color="#7FBC5D"/>
      <stop offset="1" stop-color="#84BE5D"/>
    </linearGradient>
    <linearGradient id="Gradient_2" gradientUnits="userSpaceOnUse" x1="-5.471" y1="13.781" x2="8.057" y2="13.781" gradientTransform="matrix(1, 0, 0, 1, 539.088, 44.08)">
      <stop offset="0" stop-color="#61AE5B"/>
      <stop offset="0.17" stop-color="#6CB35C"/>
      <stop offset="0.573" stop-color="#7EBC5D"/>
      <stop offset="1" stop-color="#84BE5D"/>
    </linearGradient>
  </defs>
  <g id="Image">
    <g id="Group">
      <g>
        <path d="M589,64.047 C589,84.455 572.456,101 552.046,101 C531.636,101 515.094,84.455 515.094,64.047 C515.094,43.64 531.636,27.094 552.046,27.094 C572.456,27.094 589,43.64 589,64.047 L589,64.047 z" fill="#84BE5D" id="SVGID_1_"/>
        <g id="Group">
          <path d="M575.385,60.699 C575.351,60.923 575.279,61.14 575.14,61.355 C575.267,61.138 575.385,60.92 575.385,60.699 L575.385,60.699 z" fill="#FFFFFF" id="Shape"/>
        </g>
      </g>
      <g id="Shape">
        <path d="M575.174,60.699 C575.174,60.92 575.158,61.138 575.14,61.355 C575.131,61.482 575.12,61.607 575.103,61.733 C575.078,61.936 575.049,62.137 575.01,62.335 C575.001,62.384 574.99,62.433 574.978,62.482 C574.402,65.243 572.6,67.004 570.514,68.005 C570.428,68.047 570.342,68.086 570.256,68.126 C570.106,68.193 569.952,68.256 569.797,68.317 C569.608,68.392 569.411,68.461 569.212,68.525 C569.13,68.552 569.05,68.578 568.965,68.603 C568.79,68.654 568.611,68.705 568.429,68.748 C568.226,68.798 568.021,68.846 567.811,68.884 C567.749,68.897 567.685,68.908 567.621,68.918 C567.083,69.012 566.549,69.066 566.042,69.081 L565.84,69.081 C565.771,69.082 565.703,69.09 565.633,69.091 L555.508,69.091 C554.903,69.091 554.808,69.72 554.808,69.72 L554.808,80.335 L552.046,80.335 L549.285,80.335 L566.29,98.155 C566.303,98.148 566.317,98.143 566.332,98.135 C567.405,97.675 568.427,97.187 569.404,96.677 C569.468,96.642 569.532,96.608 569.596,96.575 C569.649,96.547 569.7,96.518 569.751,96.49 C581.221,90.216 589,78.041 589,64.047 L575.174,51.068 L575.174,60.699 L575.174,60.699 z" fill="url(#Gradient_1)"/>
        <path d="M533.617,51.068 L547.145,64.655 L537.461,64.652 C535.488,64.626 533.527,62.823 533.627,60.652 L533.617,51.068 L533.617,51.068 z" fill="url(#Gradient_2)"/>
        <path d="M554.808,80.335 L554.808,69.72 C554.808,69.72 554.902,69.091 555.507,69.091 L565.633,69.091 C565.703,69.09 565.77,69.082 565.84,69.081 C566.456,69.067 567.055,69.013 567.621,68.918 C567.685,68.908 567.749,68.897 567.81,68.884 C568.02,68.846 568.226,68.798 568.429,68.748 C568.611,68.705 568.789,68.654 568.965,68.603 C569.05,68.578 569.13,68.552 569.212,68.525 C569.411,68.461 569.607,68.392 569.797,68.317 C569.951,68.256 570.106,68.193 570.256,68.126 C570.342,68.086 570.428,68.047 570.513,68.005 C572.868,66.853 574.453,64.87 574.978,62.482 C574.989,62.433 575.001,62.385 575.009,62.335 C575.049,62.137 575.078,61.936 575.103,61.733 C575.12,61.607 575.131,61.482 575.14,61.355 C575.159,61.14 575.169,60.923 575.174,60.699 L575.174,51.068 L570.477,51.068 L570.477,60.787 C570.53,62.382 569.033,64.655 566.495,64.655 L552.046,64.655 L537.596,64.655 C535.063,64.655 533.566,62.382 533.617,60.787 L533.617,51.068 L528.918,51.068 L528.918,60.699 C528.918,65.372 532.688,69.041 538.463,69.091 L548.589,69.091 C549.187,69.091 549.285,69.72 549.285,69.72 L549.285,80.335 L552.046,80.335 L554.808,80.335 L554.808,80.335 z" fill="#FFFFFF"/>
      </g>
    </g>
    <path d="M479.593,52.955 L482.156,52.955 L480.501,60.763 Q481.6,59.635 482.925,59.042 Q484.251,58.448 485.657,58.448 Q488.587,58.448 489.986,60.462 Q491.385,62.477 490.55,66.402 Q489.759,70.123 487.43,72.584 Q485.101,75.045 481.907,75.045 Q480.12,75.045 479.08,74.181 Q478.45,73.668 477.864,72.54 L477.44,74.547 L475.008,74.547 z M487.825,66.534 Q488.353,64.059 487.635,62.433 Q486.917,60.807 484.852,60.807 Q483.05,60.807 481.409,62.14 Q479.769,63.473 479.124,66.534 Q478.655,68.746 478.919,70.123 Q479.402,72.716 482.244,72.716 Q484.383,72.716 485.804,71.017 Q487.225,69.317 487.825,66.534 z" fill="#FFFFFF"/>
    <path d="M505.023,58.858 L507.938,58.858 Q507.059,60.367 503.997,65.743 Q501.712,69.786 500.203,72.335 Q496.629,78.341 495.413,79.659 Q494.197,80.978 491.912,80.978 Q491.356,80.978 491.063,80.934 Q490.77,80.89 490.359,80.772 L490.872,78.37 Q491.517,78.561 491.817,78.604 Q492.117,78.648 492.352,78.648 Q493.084,78.648 493.48,78.407 Q493.875,78.165 494.183,77.813 Q494.285,77.696 494.966,76.612 Q495.648,75.528 495.97,75.001 L493.597,58.858 L496.585,58.858 L498.079,71.632 z" fill="#FFFFFF"/>
    <g id="Group">
      <path d="M446.132,33.49 C439.248,33.49 433.176,28.162 433.176,19.776 C433.176,13.16 437.999,7.998 444.233,7.027 C445.648,6.868 447.024,6.822 448.523,7.027 C454.961,8.035 459.254,13.443 459.254,19.776 C459.254,28.326 453.426,33.49 446.132,33.49 L446.132,33.49 z M448.116,9.732 C446.983,9.566 445.807,9.566 444.597,9.732 C439.614,10.535 436.172,14.692 436.172,19.894 C436.172,26.669 440.668,30.701 446.137,30.701 C451.847,30.701 456.219,26.508 456.219,19.894 C456.219,14.407 453.023,10.499 448.116,9.73 L448.116,9.732 z M418.555,33.406 C415.352,33.406 412.442,32.159 410.456,29.777 C408.674,27.638 407.862,25.059 408.021,22.035 C408.39,17.515 411.147,13.807 415.556,12.553 C416.614,12.269 417.581,12.189 418.552,12.189 C419.56,12.189 420.661,12.271 421.63,12.553 C426.085,13.804 428.722,17.553 429.124,22.033 C429.247,25.059 428.476,27.634 426.651,29.775 C424.672,32.157 421.794,33.403 418.552,33.403 L418.555,33.406 z M416.371,15.215 C412.924,16.102 410.938,19.287 410.938,22.959 C410.938,24.688 411.586,26.628 412.722,28.002 C414.141,29.618 416.368,30.664 418.552,30.664 C420.782,30.664 422.925,29.697 424.345,28.002 C425.557,26.592 426.126,24.692 426.126,22.884 C426.126,19.253 424.14,16.104 420.734,15.217 C420.129,15.058 419.358,14.935 418.589,14.935 C417.822,14.935 417.012,15.053 416.364,15.215 L416.371,15.215 z" fill="#FFFFFF"/>
      <path d="M210.666,44.273 C211.366,43.086 212.768,43.432 212.768,44.833 L212.768,87.084 C212.768,88.688 210.607,88.758 210.607,87.084 L210.607,48.6 L194.195,76.885 C193.685,77.932 192.477,77.932 191.965,76.885 L175.556,48.744 L175.556,87.084 C175.556,88.758 173.394,88.688 173.394,87.084 L173.394,44.831 C173.394,43.434 174.794,43.083 175.428,44.271 L193.114,74.51 L210.67,44.276 L210.666,44.273 z M222.025,65.267 C222.332,54.793 228.24,45.538 237.904,43.846 C240.059,43.511 242.4,43.511 244.552,43.846 C254.273,45.538 260.92,54.795 261.173,65.267 C261.544,78.309 252.309,88.313 241.601,88.313 C230.954,88.313 221.718,78.312 222.027,65.267 L222.025,65.267 z M224.118,65.335 C223.811,76.956 232.057,86.215 241.599,86.215 C251.199,86.215 259.451,76.956 259.144,65.335 C258.893,55.871 252.985,47.495 244.242,46.009 C242.274,45.672 240.179,45.672 238.214,46.009 C229.53,47.497 224.359,55.873 224.115,65.335 L224.118,65.335 z M298.105,43.548 C299.629,43.548 299.629,45.641 298.105,45.641 L281.634,45.641 L281.696,86.977 C281.696,87.883 281.059,88.301 280.551,88.301 C280.037,88.301 279.468,87.883 279.468,86.975 L279.468,45.643 L263.057,45.643 C261.532,45.643 261.532,43.55 263.057,43.55 L298.103,43.55 L298.105,43.548 z M305.431,44.824 C305.431,43.081 307.715,43.081 307.715,44.824 L307.715,87.123 C307.715,88.724 305.428,88.724 305.428,87.123 L305.428,44.824 L305.431,44.824 z M317.038,65.26 C317.345,54.763 323.267,45.486 332.951,43.791 C335.112,43.454 337.456,43.454 339.617,43.791 C349.361,45.486 356.02,54.761 356.265,65.26 C356.638,78.328 347.386,88.351 336.655,88.351 C325.985,88.351 316.73,78.328 317.038,65.26 L317.038,65.26 z M319.135,65.328 C318.821,76.976 327.091,86.254 336.653,86.254 C346.271,86.254 354.534,76.976 354.231,65.328 C353.981,55.848 348.066,47.451 339.301,45.961 C337.333,45.625 335.233,45.625 333.258,45.961 C324.559,47.451 319.381,55.848 319.131,65.328 L319.135,65.328 z M395.577,44.856 C395.577,43.104 397.738,43.104 397.738,44.856 L397.738,86.934 C397.738,88.611 396.342,88.611 395.509,87.494 L367.815,47.863 L367.815,87.073 C367.815,88.749 365.716,88.749 365.716,87.073 L365.716,45.065 C365.716,43.313 367.051,43.108 367.945,44.367 L395.575,83.997 L395.575,44.86 L395.577,44.856 z" fill="#FFFFFF"/>
      <path d="M22.91,82.177 C24.794,82.177 26.437,82.006 27.831,81.667 C29.228,81.326 30.554,80.857 31.822,80.257 L31.822,72.128 L26.198,72.128 C25.663,72.128 25.238,71.983 24.931,71.682 C24.617,71.387 24.464,71.023 24.464,70.59 L24.464,65.893 L39.388,65.893 L39.388,83.97 C38.251,84.795 37.068,85.517 35.835,86.122 C34.606,86.731 33.291,87.227 31.899,87.619 C30.502,88.012 29.005,88.301 27.413,88.501 C25.82,88.695 24.114,88.793 22.267,88.793 C18.991,88.793 15.988,88.224 13.235,87.091 C10.487,85.953 8.105,84.384 6.098,82.363 C4.089,80.343 2.526,77.934 1.396,75.134 C0.27,72.328 -0.295,69.271 -0.295,65.949 C-0.295,62.592 0.251,59.511 1.348,56.713 C2.449,53.908 4.003,51.496 6.021,49.478 C8.039,47.454 10.487,45.893 13.36,44.781 C16.233,43.668 19.464,43.113 23.045,43.113 C26.703,43.113 29.87,43.652 32.547,44.735 C35.232,45.813 37.498,47.222 39.361,48.951 L36.938,52.723 C36.465,53.487 35.832,53.865 35.045,53.865 C34.549,53.865 34.04,53.705 33.528,53.369 C32.863,52.982 32.186,52.586 31.494,52.195 C30.8,51.808 30.038,51.467 29.196,51.176 C28.359,50.889 27.422,50.652 26.375,50.464 C25.329,50.282 24.123,50.186 22.758,50.186 C20.544,50.186 18.545,50.559 16.757,51.301 C14.964,52.042 13.442,53.103 12.179,54.486 C10.919,55.864 9.945,57.525 9.263,59.461 C8.576,61.399 8.234,63.563 8.234,65.954 C8.234,68.534 8.598,70.822 9.322,72.834 C10.043,74.842 11.058,76.537 12.361,77.914 C13.667,79.295 15.216,80.348 17.016,81.083 C18.815,81.817 20.779,82.181 22.908,82.181 L22.91,82.177 z M75.479,43.604 L75.479,50.225 L55.591,50.225 L55.591,62.614 L71.261,62.614 L71.261,69.012 L55.591,69.012 L55.591,81.651 L75.479,81.651 L75.479,88.294 L47.178,88.294 L47.178,43.609 L75.479,43.609 L75.479,43.604 z M88.012,43.654 C88.257,43.686 88.483,43.745 88.683,43.841 C88.876,43.932 89.07,44.069 89.258,44.241 C89.44,44.417 89.65,44.651 89.877,44.94 L113.426,74.822 C113.344,74.101 113.282,73.398 113.26,72.706 C113.225,72.017 113.214,71.371 113.214,70.772 L113.214,43.609 L120.567,43.609 L120.567,88.299 L116.253,88.299 C115.587,88.299 115.041,88.199 114.609,87.987 C114.17,87.783 113.751,87.412 113.335,86.879 L89.879,57.116 C89.934,57.775 89.984,58.431 90.016,59.077 C90.048,59.727 90.061,60.319 90.061,60.851 L90.061,88.297 L82.709,88.297 L82.709,43.609 L87.088,43.609 C87.457,43.609 87.764,43.627 88.012,43.659 L88.012,43.654 z M149.582,70.923 L149.582,88.294 L141.233,88.294 L141.233,70.923 L124.88,43.604 L132.233,43.604 C132.954,43.604 133.53,43.782 133.953,44.132 C134.378,44.483 134.731,44.924 135.022,45.459 L143.246,60.387 C143.724,61.274 144.133,62.116 144.488,62.903 C144.841,63.699 145.159,64.477 145.451,65.242 C145.719,64.455 146.026,63.672 146.365,62.876 C146.706,62.084 147.116,61.252 147.594,60.387 L155.754,45.459 C155.982,45.01 156.323,44.585 156.778,44.194 C157.233,43.807 157.813,43.602 158.516,43.602 L165.901,43.602 L149.582,70.925 L149.582,70.923 z" fill="#FFFFFF"/>
    </g>
  </g>
</svg>
